<svg xmlns="http://www.w3.org/2000/svg" viewBox="0 0 1819 344" xml:space="preserve">
  <g fill="var(--logo-color-1, #95ABBA">
	<g id="dot-dot-dot">
		<path d="M82.934 57.445c.045 6.922.045 13.38.045 20.192H60.078c0-6.803-.071-13.561.099-20.313.019-.76 1.39-2.11 2.155-2.126 6.317-.128 12.64-.048 18.957.116.548.014 1.068 1.087 1.645 2.131z"/>
		<path style="opacity: 0.7" d="M76.794 120.002c4.683-.559 6.605.985 6.276 5.508-.324 4.454-.195 8.956-.027 13.427.11 2.912-.742 4.24-3.904 4.116-5.134-.203-10.284-.161-15.422-.013-2.794.081-3.84-.942-3.757-3.747.15-5.138.091-10.283.027-15.424-.034-2.726 1.174-3.926 3.894-3.88 4.145.07 8.293.015 12.913.013z"/>
		<path style="opacity: 0.4" d="M83 191.206c0 4.622-.098 8.77.033 12.91.084 2.621-.59 4.017-3.574 3.925-5.3-.162-10.609-.117-15.912-.014-2.478.049-3.644-.746-3.578-3.406.127-5.136.134-10.28 0-15.416-.087-3.342 1.53-4.325 4.585-4.234 4.306.128 8.637.28 12.924-.038 4.506-.333 6.078 1.58 5.522 6.273z"/>
	</g>
	<g id="bit">
		<path d="M226.999 49c18.249-.908 35.044 1.95 49.676 12.851 18.854 14.048 29.05 32.732 30.609 56.335.595 9.022-.98 17.427-4.402 25.888 4.92 1.233 9.668 1.97 14.085 3.604 27.06 10.006 42.46 29.683 46.02 58.071 2.726 21.744-1.64 41.946-18.135 57.72-12.343 11.805-27.82 17.704-44.536 19.352-12.878 1.27-25.922 1.09-38.894 1.134-38.156.128-76.314-.03-114.47.144-4.593.02-5.957-1.245-5.94-5.883.163-43.154.166-86.31-.003-129.465-.018-4.693 1.436-5.876 5.976-5.848 29.658.187 59.317.097 88.976.096 14.617-.001 24.108-8.622 24.235-22.006.139-14.64-9.416-24.763-24.053-24.846-29.491-.167-58.984-.054-88.476-.058-6.553-.001-6.556-.005-6.557-6.39-.003-11.664.222-23.334-.109-34.988-.136-4.778 1.55-5.835 6.02-5.804 26.492.186 52.985.092 79.978.092M189.47 191.18v44.931h5.427c12.161 0 24.323.009 36.485-.001 21.157-.018 42.32.194 63.47-.18 9.605-.169 16.815-5.147 20.551-14.16 3.702-8.93 1.263-18.262-5.937-25.03-5.472-5.142-12.238-6.498-19.369-6.511-31.653-.058-63.307-.032-94.96-.007-1.647.001-3.292.271-5.667.958zM597.11 168V96h-6.415c-27.495 0-54.99-.085-82.485.09-4.185.028-5.387-1.2-5.3-5.34.254-12.158.246-24.33.005-36.489-.084-4.252 1.444-5.338 5.496-5.333 74.653.098 149.306.094 223.958.004 3.644-.004 4.977.949 4.914 4.76-.205 12.494-.258 24.998.024 37.49.096 4.235-1.55 4.904-5.246 4.886-26.661-.127-53.323-.068-79.985-.067-7.074 0-7.076 0-7.076 6.85 0 58.322-.074 116.644.127 174.966.018 5.18-1.393 6.463-6.405 6.303-11.82-.375-23.665-.333-35.487-.016-4.777.128-6.254-1.249-6.229-6.125.19-36.492.104-72.986.104-109.979z"/>
		<path d="m413.108 245 .001-189.388c0-6.604.009-6.61 6.503-6.612 13.48-.004 26.96-.001 41.07-.001.117 2.02.306 3.766.307 5.512.014 74.622-.036 149.245.125 223.867.01 4.78-1.488 5.819-5.925 5.72-12.32-.277-24.652-.233-36.975-.017-3.924.068-5.265-1.107-5.184-5.103.226-11.155.078-22.318.078-33.978z"/>
	</g>
  </g>
  <g fill="var(--logo-color-2, #111B4E)" id="info">
	<path d="M1131.587 268.42c-45.199-50.854-90.157-101.45-135.114-152.046l-1.47.523v5.65c0 51.996-.073 103.993.121 155.99.018 4.819-1.487 5.812-5.909 5.71-11.826-.276-23.663-.094-35.495-.094h-5.077V49c16.661 0 32.963-.089 49.26.14 1.582.023 3.435 1.743 4.658 3.122 47.102 53.106 94.141 106.268 141.202 159.41 3.216 3.632 6.536 7.173 9.807 10.757l1.427-.644v-5.713c0-53.664.057-107.327-.097-160.99-.014-4.75 1.188-6.341 6.109-6.2 12.156.348 24.33.234 36.493.042 3.742-.059 5.306.76 5.3 4.932-.112 75.162-.08 150.324-.095 225.487 0 1.132-.195 2.264-.332 3.75-1.606.116-3.057.308-4.509.31-16.332.021-32.667.135-48.995-.126-2.27-.036-4.967-1.475-6.672-3.099-3.728-3.549-6.946-7.634-10.612-11.759z"/>
	<path d="M888.991 51.319c.01 77.566.01 154.66.01 232.219h-47.299V48.997h10.841c10.658 0 21.317-.072 31.973.082 1.497.021 2.977 1.15 4.475 2.24z"/>
	<path d="M1513.876 116.909c16.854-39.188 47.175-60.61 88.234-65.819 32.395-4.11 65.219-4.474 97.592.977 47.65 8.024 81.443 43.788 88.52 91.88 3.409 23.173 1.94 45.871-6.157 67.886-14.868 40.423-44.263 63.602-86.41 70.07-27.764 4.26-55.866 2.233-83.823 1.447-7.583-.213-15.232-1.685-22.656-3.415-43.589-10.151-75.607-45.213-82.34-89.513-3.799-24.997-2.387-49.427 7.04-73.513m39.893 32.42c-.582 7.616-1.745 15.238-1.648 22.845.435 33.81 24.534 61.124 58.317 63.484 24.83 1.734 49.95 1.444 74.817-.028 26.05-1.543 47.138-20.084 54.373-44.744 3.519-11.996 3.77-24.205 2.343-36.606-3.844-33.41-27.545-56.156-61.1-57.17-22.297-.675-44.646-.644-66.945.005-31.356.913-53.716 20.494-60.157 52.215z"/>
	<path d="M1306 142.998h141.434c6.567 0 6.567.002 6.567 6.807v40.529H1309v93.296h-46.186V142.998H1306z"/>
	<path d="M1378 96c-38.315-.013-76.13-.025-113.945-.05-.319 0-.638-.173-1.424-.399-.106-1.277-.328-2.721-.33-4.165-.029-12.494.118-24.99-.096-37.48-.069-4.042 1.377-4.992 5.23-4.985 60.637.112 121.275.117 181.912-.009 4.03-.008 5.12 1.196 5.05 5.108-.221 12.49-.074 24.987-.095 37.48-.002 1.297-.178 2.593-.318 4.5H1378z"/>
  </g>
</svg>